<?xml version="1.0" encoding="UTF-8" standalone="no"?><!DOCTYPE svg PUBLIC "-//W3C//DTD SVG 1.1//EN" "http://www.w3.org/Graphics/SVG/1.1/DTD/svg11.dtd"><svg width="100%" height="100%" viewBox="0 0 2584 792" version="1.1" xmlns="http://www.w3.org/2000/svg" xmlns:xlink="http://www.w3.org/1999/xlink" xml:space="preserve" xmlns:serif="http://www.serif.com/" style="fill-rule:evenodd;clip-rule:evenodd;stroke-linejoin:round;stroke-miterlimit:2;"><path d="M112.702,547.555c-3.012,1.656 -6.249,2.484 -9.712,2.484c-2.71,-0 -4.931,-0.527 -6.663,-1.581c-1.731,-1.054 -3.275,-2.786 -4.63,-5.195l-25.747,-44.267c-3.614,-6.324 -8.018,-10.804 -13.213,-13.439c-5.194,-2.635 -12.234,-3.952 -21.117,-3.952l-15.358,-0l-0,66.627l-16.262,0l-0,-158.099l51.269,0c18.219,0 32.523,4.028 42.913,12.084c10.389,8.055 15.584,19.235 15.584,33.539c-0,11.293 -3.765,21.042 -11.293,29.248c-7.529,8.206 -17.316,13.288 -29.361,15.246c4.366,3.613 8.281,8.206 11.744,13.777l31.846,53.528Zm-62.562,-79.953c13.551,-0 24.053,-2.786 31.507,-8.357c7.453,-5.571 11.18,-13.401 11.18,-23.489c-0,-10.389 -3.501,-18.257 -10.503,-23.602c-7.001,-5.345 -17.353,-8.018 -31.055,-8.018l-35.007,0l-0,63.466l33.878,-0Z" style="fill:#376f37;fill-rule:nonzero;"/><path d="M147.484,424.012l15.358,-0l-0,124.22l-15.358,0l-0,-124.22Zm6.775,-22.812c-6.775,0 -10.163,-3.388 -10.163,-10.163l-0,-2.033c-0,-6.776 3.388,-10.163 10.163,-10.163l1.807,-0c6.776,-0 10.164,3.387 10.164,10.163l-0,2.033c-0,6.775 -3.388,10.163 -10.164,10.163l-1.807,0Z" style="fill:#376f37;fill-rule:nonzero;"/><path d="M243.02,550.491c-6.775,-0 -13.777,-1.13 -21.004,-3.388c-7.228,-2.259 -13.25,-5.27 -18.069,-9.034c-4.818,-3.765 -7.227,-7.755 -7.227,-11.971c-0,-1.957 0.64,-3.726 1.92,-5.307c1.28,-1.581 2.898,-2.673 4.856,-3.275c5.42,7.077 11.292,12.234 17.616,15.471c6.324,3.237 13.928,4.856 22.812,4.856c9.486,-0 16.675,-2.184 21.569,-6.55c4.893,-4.367 7.34,-10.164 7.34,-17.391c0,-4.818 -1.468,-8.733 -4.404,-11.744c-2.936,-3.012 -6.55,-5.27 -10.841,-6.776c-4.291,-1.506 -10.201,-3.237 -17.73,-5.195c-8.733,-2.258 -15.772,-4.442 -21.117,-6.55c-5.345,-2.108 -9.862,-5.307 -13.551,-9.598c-3.689,-4.292 -5.534,-10.051 -5.534,-17.278c0,-7.679 2.033,-14.154 6.098,-19.424c4.066,-5.27 9.26,-9.185 15.584,-11.744c6.324,-2.56 12.799,-3.84 19.424,-3.84c9.486,0 18.106,1.882 25.86,5.646c7.755,3.765 13.815,9.261 18.182,16.488c-3.614,3.764 -6.701,5.646 -9.26,5.646c-1.958,0 -3.84,-1.054 -5.647,-3.162c-3.614,-4.216 -7.792,-7.34 -12.535,-9.373c-4.743,-2.032 -10.502,-3.049 -17.278,-3.049c-7.679,0 -13.777,1.807 -18.294,5.421c-4.517,3.613 -6.776,9.185 -6.776,16.713c0,4.367 1.355,7.905 4.066,10.615c2.71,2.711 6.098,4.781 10.163,6.211c4.066,1.431 9.637,3.049 16.713,4.856c9.035,2.108 16.375,4.291 22.021,6.55c5.647,2.259 10.427,5.759 14.342,10.502c3.915,4.743 5.872,11.105 5.872,19.085c0,11.142 -4.103,20.026 -12.309,26.651c-8.206,6.625 -19.16,9.938 -32.862,9.938Z" style="fill:#376f37;fill-rule:nonzero;"/><path d="M322.07,424.012l15.358,-0l-0,124.22l-15.358,0l-0,-124.22Zm6.775,-22.812c-6.775,0 -10.163,-3.388 -10.163,-10.163l-0,-2.033c-0,-6.776 3.388,-10.163 10.163,-10.163l1.807,-0c6.776,-0 10.164,3.387 10.164,10.163l-0,2.033c-0,6.775 -3.388,10.163 -10.164,10.163l-1.807,0Z" style="fill:#376f37;fill-rule:nonzero;"/><path d="M479.717,519.323c-0,9.184 0.113,15.395 0.339,18.633c0.225,3.237 0.79,6.135 1.693,8.695c-3.613,1.807 -7.528,2.71 -11.744,2.71c-2.259,0 -3.764,-1.618 -4.517,-4.856c-0.753,-3.237 -1.129,-9.674 -1.129,-19.31l-0,-61.207c-0,-10.54 -1.958,-18.181 -5.873,-22.924c-3.914,-4.743 -10.238,-7.115 -18.972,-7.115c-13.551,0 -27.403,6.701 -41.557,20.101l0,94.182l-15.358,0l-0,-81.985c-0,-22.285 -0.903,-35.535 -2.71,-39.751c4.818,-2.258 8.657,-3.388 11.518,-3.388c4.367,0 6.55,4.367 6.55,13.1l0,2.033c6.926,-5.722 13.89,-9.9 20.892,-12.535c7.001,-2.635 14.417,-3.953 22.246,-3.953c12.95,0 22.624,3.501 29.023,10.502c6.399,7.002 9.599,17.655 9.599,31.959l-0,55.109Z" style="fill:#376f37;fill-rule:nonzero;"/><path d="M619.747,417.462c2.71,-0 4.705,0.715 5.985,2.145c1.28,1.431 1.92,3.727 1.92,6.889c-0,0.903 -0.151,2.71 -0.452,5.421c-11.142,-0 -18.896,1.505 -23.263,4.517c6.023,7.227 9.034,16.186 9.034,26.876c0,28.91 -16.638,43.365 -49.914,43.365c-10.238,-0 -17.729,0.715 -22.472,2.145c-4.743,1.431 -7.115,3.652 -7.115,6.663c0,6.776 12.121,10.164 36.363,10.164c17.014,-0 30.189,2.86 39.525,8.582c9.335,5.722 14.003,13.853 14.003,24.392c-0,11.293 -5.007,19.989 -15.02,26.087c-10.013,6.098 -24.354,9.147 -43.025,9.147c-17.617,-0 -31.018,-2.71 -40.202,-8.131c-9.185,-5.42 -13.778,-13.401 -13.778,-23.941c0,-6.022 2.071,-11.368 6.212,-16.035c4.14,-4.668 9.899,-8.131 17.277,-10.39l0,-0.677c-4.517,-1.205 -8.13,-3.426 -10.841,-6.663c-2.71,-3.237 -4.065,-7.114 -4.065,-11.632c-0,-3.764 1.506,-7.114 4.517,-10.05c3.011,-2.936 7.077,-4.931 12.196,-5.985c-6.474,-3.614 -11.481,-8.395 -15.019,-14.342c-3.538,-5.948 -5.308,-12.61 -5.308,-19.988c0,-29.512 17.015,-44.268 51.044,-44.268c10.69,0 19.8,2.334 27.328,7.002c3.764,-3.464 7.867,-6.211 12.309,-8.244c4.442,-2.033 8.696,-3.049 12.761,-3.049Zm-55.335,76.565c11.594,-0 19.913,-2.296 24.957,-6.889c5.045,-4.592 7.567,-12.234 7.567,-22.924c-0,-10.54 -2.56,-18.219 -7.679,-23.037c-5.12,-4.819 -13.401,-7.228 -24.845,-7.228c-11.142,0 -19.31,2.447 -24.505,7.341c-5.194,4.893 -7.792,12.535 -7.792,22.924c0,19.875 10.766,29.813 32.297,29.813Zm1.807,45.623c-12.798,-0 -22.472,1.731 -29.022,5.194c-6.55,3.463 -9.825,8.507 -9.825,15.133c0,6.926 3.237,12.196 9.712,15.809c6.475,3.614 15.885,5.421 28.232,5.421c13.852,-0 24.317,-1.769 31.394,-5.308c7.077,-3.538 10.615,-8.846 10.615,-15.922c-0,-7.228 -3.2,-12.422 -9.599,-15.584c-6.399,-3.162 -16.901,-4.743 -31.507,-4.743Z" style="fill:#376f37;fill-rule:nonzero;"/><path d="M826.856,463.988l0,67.757c-5.571,5.721 -12.986,10.276 -22.246,13.664c-9.26,3.388 -18.935,5.082 -29.023,5.082c-23.338,-0 -41.03,-6.889 -53.076,-20.666c-12.045,-13.777 -18.068,-33.991 -18.068,-60.642c-0,-26.049 6.136,-46.112 18.407,-60.191c12.271,-14.078 29.851,-21.117 52.737,-21.117c10.691,-0 20.628,1.995 29.813,5.985c9.185,3.99 16.111,9.298 20.779,15.923c-3.012,5.27 -6.324,7.905 -9.938,7.905c-2.409,-0 -4.893,-1.054 -7.453,-3.162c-5.119,-4.367 -10.314,-7.529 -15.584,-9.486c-5.27,-1.958 -11.218,-2.936 -17.843,-2.936c-17.767,-0 -31.243,5.684 -40.428,17.052c-9.185,11.368 -13.777,28.043 -13.777,50.027c0,22.585 4.48,39.411 13.438,50.478c8.959,11.067 22.548,16.601 40.767,16.601c7.529,-0 14.53,-0.979 21.005,-2.936c6.474,-1.958 11.217,-4.593 14.229,-7.905l-0,-47.43l-31.846,0c-3.011,0 -5.157,-1.054 -6.437,-3.162c-1.28,-2.108 -1.919,-5.722 -1.919,-10.841l56.463,0Z" style="fill:#376f37;fill-rule:nonzero;"/><path d="M909.971,422.431c5.27,-0 9.298,0.865 12.083,2.597c2.786,1.732 4.179,4.329 4.179,7.792c-0,2.409 -0.828,4.592 -2.485,6.55c-3.613,-1.958 -8.582,-2.936 -14.906,-2.936c-10.088,-0 -18.181,3.99 -24.28,11.97c-6.098,7.98 -9.147,18.445 -9.147,31.394l0,68.434l-15.358,0l0,-124.22l15.358,-0l0,22.359c3.463,-6.926 8.357,-12.648 14.681,-17.165c6.324,-4.517 12.949,-6.775 19.875,-6.775Z" style="fill:#376f37;fill-rule:nonzero;"/><path d="M1048.65,477.314c0,3.463 -0.15,6.926 -0.451,10.389l-89.891,-0c0.301,15.659 3.802,27.855 10.502,36.588c6.701,8.733 15.999,13.1 27.894,13.1c8.13,0 15.019,-1.581 20.665,-4.743c5.647,-3.162 10.352,-8.206 14.116,-15.132c1.054,-1.958 2.635,-2.936 4.743,-2.936c2.409,-0 5.722,1.43 9.938,4.291c-3.313,9.787 -9.411,17.504 -18.294,23.15c-8.884,5.646 -19.273,8.47 -31.168,8.47c-10.992,-0 -20.591,-2.598 -28.797,-7.792c-8.206,-5.195 -14.492,-12.648 -18.859,-22.36c-4.366,-9.712 -6.55,-21.193 -6.55,-34.443c0,-20.026 4.969,-35.723 14.907,-47.091c9.937,-11.368 23.564,-17.052 40.88,-17.052c15.809,0 28.156,4.894 37.04,14.681c8.884,9.787 13.325,23.413 13.325,40.88Zm-15.81,-1.807c0,-27.103 -11.744,-40.654 -35.233,-40.654c-11.443,-0 -20.478,3.463 -27.103,10.389c-6.625,6.926 -10.54,17.014 -11.744,30.265l74.08,-0Z" style="fill:#376f37;fill-rule:nonzero;"/><path d="M1175.12,477.314c0,3.463 -0.15,6.926 -0.451,10.389l-89.891,-0c0.301,15.659 3.802,27.855 10.502,36.588c6.701,8.733 15.999,13.1 27.894,13.1c8.13,0 15.019,-1.581 20.665,-4.743c5.647,-3.162 10.352,-8.206 14.116,-15.132c1.054,-1.958 2.635,-2.936 4.743,-2.936c2.409,-0 5.722,1.43 9.938,4.291c-3.313,9.787 -9.411,17.504 -18.294,23.15c-8.884,5.646 -19.273,8.47 -31.168,8.47c-10.992,-0 -20.591,-2.598 -28.797,-7.792c-8.206,-5.195 -14.492,-12.648 -18.859,-22.36c-4.366,-9.712 -6.55,-21.193 -6.55,-34.443c0,-20.026 4.969,-35.723 14.907,-47.091c9.937,-11.368 23.564,-17.052 40.88,-17.052c15.809,0 28.156,4.894 37.04,14.681c8.883,9.787 13.325,23.413 13.325,40.88Zm-15.81,-1.807c0,-27.103 -11.744,-40.654 -35.233,-40.654c-11.443,-0 -20.478,3.463 -27.103,10.389c-6.625,6.926 -10.54,17.014 -11.744,30.265l74.08,-0Z" style="fill:#376f37;fill-rule:nonzero;"/><path d="M1301.6,519.323c0,9.184 0.113,15.395 0.339,18.633c0.226,3.237 0.791,6.135 1.694,8.695c-3.614,1.807 -7.529,2.71 -11.744,2.71c-2.259,0 -3.765,-1.618 -4.518,-4.856c-0.752,-3.237 -1.129,-9.674 -1.129,-19.31l0,-61.207c0,-10.54 -1.957,-18.181 -5.872,-22.924c-3.915,-4.743 -10.239,-7.115 -18.972,-7.115c-13.551,0 -27.404,6.701 -41.557,20.101l-0,94.182l-15.358,0l-0,-81.985c-0,-22.285 -0.904,-35.535 -2.711,-39.751c4.818,-2.258 8.658,-3.388 11.519,-3.388c4.366,0 6.55,4.367 6.55,13.1l-0,2.033c6.926,-5.722 13.89,-9.9 20.891,-12.535c7.002,-2.635 14.417,-3.953 22.247,-3.953c12.949,0 22.623,3.501 29.022,10.502c6.4,7.002 9.599,17.655 9.599,31.959l0,55.109Z" style="fill:#376f37;fill-rule:nonzero;"/><path d="M1500.13,548.232c-4.065,-18.671 -7.905,-33.954 -11.518,-45.849l-76.791,0c-3.614,11.895 -7.454,27.178 -11.519,45.849l-16.713,0c7.829,-32.222 16.337,-60.868 25.521,-85.938c9.185,-25.07 20.102,-49.123 32.749,-72.161l16.94,0c12.497,22.887 23.338,46.865 32.523,71.935c9.185,25.07 17.692,53.791 25.521,86.164l-16.713,0Zm-15.358,-59.4c-9.185,-29.21 -20.703,-56.614 -34.556,-82.211c-13.852,25.597 -25.371,53.001 -34.556,82.211l69.112,0Z" style="fill:#376f37;fill-rule:nonzero;"/><path d="M1587.09,550.491c-18.219,-0 -32.41,-5.722 -42.573,-17.165c-10.164,-11.444 -15.246,-27.404 -15.246,-47.882c0,-12.949 2.297,-24.204 6.889,-33.765c4.592,-9.561 11.18,-16.939 19.762,-22.134c8.583,-5.195 18.671,-7.792 30.265,-7.792c13.852,0 25.258,3.501 34.217,10.502c8.959,7.002 14.191,16.525 15.697,28.571c-1.355,0.602 -3.2,1.205 -5.533,1.807c-2.334,0.602 -4.254,0.903 -5.76,0.903c-1.505,0 -2.597,-0.414 -3.275,-1.242c-0.677,-0.828 -1.392,-2.597 -2.145,-5.307c-1.657,-7.077 -5.421,-12.611 -11.293,-16.601c-5.872,-3.99 -13.175,-5.985 -21.908,-5.985c-8.131,-0 -15.32,2.108 -21.569,6.324c-6.249,4.216 -11.067,10.201 -14.455,17.955c-3.388,7.755 -5.082,16.676 -5.082,26.764c0,15.961 3.802,28.684 11.406,38.17c7.604,9.486 17.805,14.229 30.603,14.229c9.788,-0 18.144,-2.296 25.07,-6.889c6.927,-4.592 12.121,-11.33 15.584,-20.214c2.108,0 3.878,0.904 5.308,2.71c1.43,1.807 2.146,3.915 2.146,6.324c-0,5.27 -2.221,10.277 -6.663,15.02c-4.442,4.743 -10.389,8.545 -17.843,11.405c-7.453,2.861 -15.32,4.292 -23.602,4.292Z" style="fill:#376f37;fill-rule:nonzero;"/><path d="M1711.53,550.491c-18.219,-0 -32.411,-5.722 -42.574,-17.165c-10.163,-11.444 -15.245,-27.404 -15.245,-47.882c-0,-12.949 2.296,-24.204 6.888,-33.765c4.593,-9.561 11.18,-16.939 19.763,-22.134c8.582,-5.195 18.67,-7.792 30.264,-7.792c13.853,0 25.258,3.501 34.217,10.502c8.959,7.002 14.192,16.525 15.697,28.571c-1.355,0.602 -3.199,1.205 -5.533,1.807c-2.334,0.602 -4.254,0.903 -5.759,0.903c-1.506,0 -2.598,-0.414 -3.275,-1.242c-0.678,-0.828 -1.393,-2.597 -2.146,-5.307c-1.656,-7.077 -5.42,-12.611 -11.293,-16.601c-5.872,-3.99 -13.175,-5.985 -21.908,-5.985c-8.13,-0 -15.32,2.108 -21.569,6.324c-6.249,4.216 -11.067,10.201 -14.455,17.955c-3.387,7.755 -5.081,16.676 -5.081,26.764c-0,15.961 3.802,28.684 11.405,38.17c7.604,9.486 17.805,14.229 30.604,14.229c9.787,-0 18.143,-2.296 25.07,-6.889c6.926,-4.592 12.121,-11.33 15.584,-20.214c2.108,0 3.877,0.904 5.307,2.71c1.431,1.807 2.146,3.915 2.146,6.324c-0,5.27 -2.221,10.277 -6.663,15.02c-4.442,4.743 -10.389,8.545 -17.842,11.405c-7.454,2.861 -15.321,4.292 -23.602,4.292Z" style="fill:#376f37;fill-rule:nonzero;"/><path d="M1831.01,550.491c-17.466,-0 -30.641,-5.421 -39.524,-16.262c-8.884,-10.841 -13.326,-26.952 -13.326,-48.333c0,-42.762 17.617,-64.143 52.85,-64.143c35.234,0 52.85,21.381 52.85,64.143c0,21.381 -4.441,37.492 -13.325,48.333c-8.884,10.841 -22.059,16.262 -39.525,16.262Zm0,-12.648c12.799,-0 22.172,-4.179 28.119,-12.535c5.948,-8.357 8.921,-21.494 8.921,-39.412c0,-17.767 -2.973,-30.792 -8.921,-39.073c-5.947,-8.281 -15.32,-12.422 -28.119,-12.422c-12.798,-0 -22.171,4.141 -28.119,12.422c-5.947,8.281 -8.921,21.306 -8.921,39.073c-0,17.918 2.974,31.055 8.921,39.412c5.948,8.356 15.321,12.535 28.119,12.535Z" style="fill:#376f37;fill-rule:nonzero;"/><path d="M2009.66,522.71c-0,8.734 1.129,16.714 3.388,23.941c-3.162,1.807 -6.4,2.71 -9.712,2.71c-3.162,0 -5.458,-1.317 -6.889,-3.952c-1.43,-2.635 -2.221,-7.416 -2.371,-14.342c-4.216,5.872 -10.164,10.578 -17.843,14.116c-7.679,3.538 -15.96,5.308 -24.844,5.308c-25.446,-0 -38.169,-13.928 -38.169,-41.784l-0,-84.695l15.358,-0l-0,83.114c-0,10.992 2.032,18.935 6.098,23.828c4.065,4.894 10.54,7.34 19.423,7.34c7.981,0 15.471,-2.032 22.473,-6.098c7.001,-4.065 12.836,-9.787 17.504,-17.165l-0,-91.019l15.584,-0l-0,98.698Z" style="fill:#376f37;fill-rule:nonzero;"/><path d="M2148.11,519.323c0,9.184 0.113,15.395 0.339,18.633c0.226,3.237 0.79,6.135 1.694,8.695c-3.614,1.807 -7.529,2.71 -11.745,2.71c-2.258,0 -3.764,-1.618 -4.517,-4.856c-0.753,-3.237 -1.129,-9.674 -1.129,-19.31l-0,-61.207c-0,-10.54 -1.957,-18.181 -5.872,-22.924c-3.915,-4.743 -10.239,-7.115 -18.972,-7.115c-13.551,0 -27.404,6.701 -41.558,20.101l0,94.182l-15.358,0l0,-81.985c0,-22.285 -0.903,-35.535 -2.71,-39.751c4.818,-2.258 8.658,-3.388 11.519,-3.388c4.366,0 6.549,4.367 6.549,13.1l0,2.033c6.927,-5.722 13.891,-9.9 20.892,-12.535c7.002,-2.635 14.417,-3.953 22.247,-3.953c12.949,0 22.623,3.501 29.022,10.502c6.399,7.002 9.599,17.655 9.599,31.959l0,55.109Z" style="fill:#376f37;fill-rule:nonzero;"/><path d="M2245.68,533.1c1.054,0.753 1.919,1.844 2.597,3.275c0.678,1.43 1.016,2.898 1.016,4.404c0,2.861 -1.204,4.893 -3.613,6.098c-4.819,2.409 -11.067,3.614 -18.746,3.614c-9.787,-0 -17.617,-2.673 -23.489,-8.018c-5.873,-5.345 -8.809,-12.535 -8.809,-21.569l0,-84.696l-23.489,-0l0,-12.196l23.489,-0l0,-33.879l15.358,0l0,33.879l32.524,-0l-0,12.196l-32.524,-0l0,81.759c0,12.648 5.421,18.972 16.262,18.972c6.926,0 13.401,-1.28 19.424,-3.839Z" style="fill:#376f37;fill-rule:nonzero;"/><path d="M2277.75,424.012l15.358,-0l0,124.22l-15.358,0l0,-124.22Zm6.776,-22.812c-6.776,0 -10.164,-3.388 -10.164,-10.163l0,-2.033c0,-6.776 3.388,-10.163 10.164,-10.163l1.807,-0c6.775,-0 10.163,3.387 10.163,10.163l0,2.033c0,6.775 -3.388,10.163 -10.163,10.163l-1.807,0Z" style="fill:#376f37;fill-rule:nonzero;"/><path d="M2435.4,519.323c0,9.184 0.113,15.395 0.339,18.633c0.226,3.237 0.79,6.135 1.694,8.695c-3.614,1.807 -7.529,2.71 -11.745,2.71c-2.258,0 -3.764,-1.618 -4.517,-4.856c-0.753,-3.237 -1.129,-9.674 -1.129,-19.31l-0,-61.207c-0,-10.54 -1.957,-18.181 -5.872,-22.924c-3.915,-4.743 -10.239,-7.115 -18.972,-7.115c-13.551,0 -27.404,6.701 -41.558,20.101l0,94.182l-15.358,0l0,-81.985c0,-22.285 -0.903,-35.535 -2.71,-39.751c4.818,-2.258 8.658,-3.388 11.519,-3.388c4.366,0 6.549,4.367 6.549,13.1l0,2.033c6.927,-5.722 13.891,-9.9 20.892,-12.535c7.002,-2.635 14.417,-3.953 22.247,-3.953c12.949,0 22.623,3.501 29.022,10.502c6.399,7.002 9.599,17.655 9.599,31.959l0,55.109Z" style="fill:#376f37;fill-rule:nonzero;"/><path d="M2575.43,417.462c2.711,-0 4.706,0.715 5.986,2.145c1.279,1.431 1.919,3.727 1.919,6.889c0,0.903 -0.15,2.71 -0.451,5.421c-11.143,-0 -18.897,1.505 -23.263,4.517c6.022,7.227 9.034,16.186 9.034,26.876c-0,28.91 -16.638,43.365 -49.914,43.365c-10.239,-0 -17.73,0.715 -22.473,2.145c-4.743,1.431 -7.114,3.652 -7.114,6.663c-0,6.776 12.121,10.164 36.362,10.164c17.015,-0 30.19,2.86 39.525,8.582c9.335,5.722 14.003,13.853 14.003,24.392c0,11.293 -5.006,19.989 -15.019,26.087c-10.013,6.098 -24.355,9.147 -43.026,9.147c-17.616,-0 -31.017,-2.71 -40.202,-8.131c-9.185,-5.42 -13.777,-13.401 -13.777,-23.941c-0,-6.022 2.07,-11.368 6.211,-16.035c4.141,-4.668 9.9,-8.131 17.278,-10.39l-0,-0.677c-4.517,-1.205 -8.131,-3.426 -10.841,-6.663c-2.711,-3.237 -4.066,-7.114 -4.066,-11.632c0,-3.764 1.506,-7.114 4.517,-10.05c3.012,-2.936 7.077,-4.931 12.197,-5.985c-6.475,-3.614 -11.481,-8.395 -15.02,-14.342c-3.538,-5.948 -5.307,-12.61 -5.307,-19.988c-0,-29.512 17.014,-44.268 51.043,-44.268c10.69,0 19.8,2.334 27.328,7.002c3.765,-3.464 7.868,-6.211 12.31,-8.244c4.441,-2.033 8.695,-3.049 12.76,-3.049Zm-55.334,76.565c11.594,-0 19.913,-2.296 24.957,-6.889c5.044,-4.592 7.566,-12.234 7.566,-22.924c0,-10.54 -2.56,-18.219 -7.679,-23.037c-5.119,-4.819 -13.401,-7.228 -24.844,-7.228c-11.142,0 -19.311,2.447 -24.505,7.341c-5.195,4.893 -7.792,12.535 -7.792,22.924c-0,19.875 10.765,29.813 32.297,29.813Zm1.807,45.623c-12.799,-0 -22.473,1.731 -29.023,5.194c-6.55,3.463 -9.824,8.507 -9.824,15.133c-0,6.926 3.237,12.196 9.711,15.809c6.475,3.614 15.886,5.421 28.232,5.421c13.853,-0 24.317,-1.769 31.394,-5.308c7.077,-3.538 10.615,-8.846 10.615,-15.922c0,-7.228 -3.199,-12.422 -9.598,-15.584c-6.4,-3.162 -16.902,-4.743 -31.507,-4.743Z" style="fill:#376f37;fill-rule:nonzero;"/><rect x="0" y="631.355" width="2583.33" height="8.333" style="fill:#376f37;"/><path d="M1363.82,202.951c-8.687,0 -43.434,77.848 -43.434,173.735c0,95.887 34.747,173.735 43.434,173.735c5.155,0 -8.048,-30.765 -19.634,-73.837c-7.936,-29.502 -15.113,-64.778 -15.113,-99.898c-0,-44.241 7.425,-93.075 17.373,-125.958c9.478,-31.328 21.612,-47.777 17.374,-47.777Z" style="fill:#90834b;"/><path d="M1311.7,63.963c-86.298,0 -156.361,58.386 -156.361,130.302c-0,71.915 70.063,130.301 156.361,130.301c-81.97,-2.178 -148.52,-59.814 -148.52,-130.301c-0,-70.487 66.55,-128.124 148.52,-130.302Z" style="fill:#55904b;"/><path d="M1391.42,54.488c-18.976,-45.499 -72.137,-66.692 -118.642,-47.297c-46.505,19.395 -68.854,72.081 -49.879,117.58c-15.421,-42.948 7.362,-92.539 52.476,-111.354c45.113,-18.815 96.381,-0.108 116.045,41.071Z" style="fill:#55904b;"/><path d="M1347.48,304.375c38.293,43.852 104.985,48.364 148.836,10.071c43.852,-38.293 48.365,-104.984 10.072,-148.836c34.616,42.676 28.856,106.894 -14.01,144.326c-42.866,37.433 -107.275,34.489 -144.898,-5.561Z" style="fill:#55904b;"/><path d="M1478.13,259.415c64.84,-59.37 78.247,-150.42 29.922,-203.198c-48.326,-52.778 -140.202,-47.426 -205.042,11.945c63.1,-54.919 151.918,-58.455 199.31,-6.697c47.392,51.758 36.062,139.921 -24.19,197.95Z" style="fill:#55904b;"/><path d="M390.517,715.855c-0.067,4.2 -0.134,8.383 -0.2,12.55c-0.067,4.167 -0.134,8.383 -0.2,12.65l-8.6,-0l-0,-25.2l9,-0Zm13.5,-0c-0.067,4.2 -0.134,8.383 -0.2,12.55c-0.067,4.167 -0.134,8.383 -0.2,12.65l-8.6,-0l-0,-25.2l9,-0Z" style="fill:#28789c;fill-rule:nonzero;"/><path d="M414.417,716.355l48.3,-0l-0,10.1l-19.2,-0l-0,62.4l-10.5,-0l-0,-62.4l-18.6,-0l-0,-10.1Z" style="fill:#28789c;fill-rule:nonzero;"/><path d="M478.517,747.055l0.8,9.9c1.2,-2.4 2.8,-4.467 4.8,-6.2c2,-1.733 4.083,-3.067 6.25,-4c2.166,-0.933 4.016,-1.4 5.55,-1.4l-0.5,10c-3.134,-0.2 -5.884,0.4 -8.25,1.8c-2.367,1.4 -4.217,3.267 -5.55,5.6c-1.334,2.333 -2,4.833 -2,7.5l-0,18.6l-10.1,-0l-0,-41.8l9,-0Z" style="fill:#28789c;fill-rule:nonzero;"/><path d="M521.017,790.555c-3.867,-0 -7.05,-1.167 -9.55,-3.5c-2.5,-2.333 -3.784,-5.333 -3.85,-9l-0,-31l10.1,-0l-0,27.4c0.133,2.2 0.766,3.983 1.9,5.35c1.133,1.367 2.933,2.083 5.4,2.15c2.266,-0 4.3,-0.683 6.1,-2.05c1.8,-1.367 3.216,-3.25 4.25,-5.65c1.033,-2.4 1.55,-5.1 1.55,-8.1l-0,-19.1l10.1,-0l-0,41.8l-9.1,-0l-0.6,-7.7c-1.4,2.733 -3.55,4.983 -6.45,6.75c-2.9,1.767 -6.184,2.65 -9.85,2.65Z" style="fill:#28789c;fill-rule:nonzero;"/><path d="M574.917,789.755c-3.067,-0 -6,-0.55 -8.8,-1.65c-2.8,-1.1 -5.167,-2.683 -7.1,-4.75l4.3,-5.8c1.733,1.667 3.533,2.933 5.4,3.8c1.866,0.867 3.666,1.3 5.4,1.3c1.933,-0 3.633,-0.383 5.1,-1.15c1.466,-0.767 2.2,-2.05 2.2,-3.85c-0,-1.467 -0.484,-2.6 -1.45,-3.4c-0.967,-0.8 -2.184,-1.467 -3.65,-2c-1.467,-0.533 -3.034,-1.033 -4.7,-1.5c-7.134,-2.333 -10.7,-6.433 -10.7,-12.3c-0,-2.133 0.55,-4.2 1.65,-6.2c1.1,-2 2.766,-3.617 5,-4.85c2.233,-1.233 5.05,-1.85 8.45,-1.85c2.933,-0 5.566,0.35 7.9,1.05c2.333,0.7 4.5,1.883 6.5,3.55l-3.9,6.1c-1.2,-1.2 -2.617,-2.117 -4.25,-2.75c-1.634,-0.633 -3.117,-0.983 -4.45,-1.05c-1.8,-0 -3.367,0.417 -4.7,1.25c-1.334,0.833 -2,1.95 -2,3.35c-0,1.467 0.466,2.6 1.4,3.4c0.933,0.8 2.15,1.45 3.65,1.95c1.5,0.5 3.016,1.017 4.55,1.55c3.066,1 5.616,2.367 7.65,4.1c2.033,1.733 3.05,4.267 3.05,7.6c-0,2.533 -0.6,4.867 -1.8,7c-1.2,2.133 -3.017,3.85 -5.45,5.15c-2.434,1.3 -5.517,1.95 -9.25,1.95Z" style="fill:#28789c;fill-rule:nonzero;"/><path d="M608.217,728.755l10.2,-0l-0,18.4l11.2,-0l-0,7.9l-11.2,-0l-0,33.8l-10.2,-0l-0,-33.8l-7.4,-0l-0,-7.9l7.4,-0l-0,-18.4Z" style="fill:#28789c;fill-rule:nonzero;"/><path d="M653.717,747.055l10.1,-0l-0,41.8l-10.1,-0l-0,-41.8Zm-0.5,-15c-0,-1.533 0.616,-2.833 1.85,-3.9c1.233,-1.067 2.583,-1.6 4.05,-1.6c1.466,-0 2.8,0.533 4,1.6c1.2,1.067 1.8,2.367 1.8,3.9c-0,1.667 -0.6,3 -1.8,4c-1.2,1 -2.534,1.5 -4,1.5c-1.467,-0 -2.817,-0.5 -4.05,-1.5c-1.234,-1 -1.85,-2.333 -1.85,-4Z" style="fill:#28789c;fill-rule:nonzero;"/><path d="M691.717,789.755c-3.067,-0 -6,-0.55 -8.8,-1.65c-2.8,-1.1 -5.167,-2.683 -7.1,-4.75l4.3,-5.8c1.733,1.667 3.533,2.933 5.4,3.8c1.866,0.867 3.666,1.3 5.4,1.3c1.933,-0 3.633,-0.383 5.1,-1.15c1.466,-0.767 2.2,-2.05 2.2,-3.85c-0,-1.467 -0.484,-2.6 -1.45,-3.4c-0.967,-0.8 -2.184,-1.467 -3.65,-2c-1.467,-0.533 -3.034,-1.033 -4.7,-1.5c-7.134,-2.333 -10.7,-6.433 -10.7,-12.3c-0,-2.133 0.55,-4.2 1.65,-6.2c1.1,-2 2.766,-3.617 5,-4.85c2.233,-1.233 5.05,-1.85 8.45,-1.85c2.933,-0 5.566,0.35 7.9,1.05c2.333,0.7 4.5,1.883 6.5,3.55l-3.9,6.1c-1.2,-1.2 -2.617,-2.117 -4.25,-2.75c-1.634,-0.633 -3.117,-0.983 -4.45,-1.05c-1.8,-0 -3.367,0.417 -4.7,1.25c-1.334,0.833 -2,1.95 -2,3.35c-0,1.467 0.466,2.6 1.4,3.4c0.933,0.8 2.15,1.45 3.65,1.95c1.5,0.5 3.016,1.017 4.55,1.55c3.066,1 5.616,2.367 7.65,4.1c2.033,1.733 3.05,4.267 3.05,7.6c-0,2.533 -0.6,4.867 -1.8,7c-1.2,2.133 -3.017,3.85 -5.45,5.15c-2.434,1.3 -5.517,1.95 -9.25,1.95Z" style="fill:#28789c;fill-rule:nonzero;"/><path d="M753.617,789.855c-4.8,-0 -8.934,-0.95 -12.4,-2.85c-3.467,-1.9 -6.134,-4.533 -8,-7.9c-1.867,-3.367 -2.8,-7.183 -2.8,-11.45c-0,-4.133 1.05,-7.883 3.15,-11.25c2.1,-3.367 4.916,-6.05 8.45,-8.05c3.533,-2 7.466,-3 11.8,-3c5.6,-0 10.25,1.617 13.95,4.85c3.7,3.233 6.183,7.783 7.45,13.65l-32.7,11.3c1.2,1.933 2.783,3.433 4.75,4.5c1.966,1.067 4.15,1.6 6.55,1.6c1.8,-0 3.533,-0.3 5.2,-0.9c1.666,-0.6 3.233,-1.467 4.7,-2.6l4.6,7.5c-2.134,1.4 -4.5,2.517 -7.1,3.35c-2.6,0.833 -5.134,1.25 -7.6,1.25Zm-13.2,-22.8c-0,0.733 0.033,1.433 0.1,2.1l23.3,-8.5c-0.867,-1.933 -2.15,-3.633 -3.85,-5.1c-1.7,-1.467 -3.984,-2.2 -6.85,-2.2c-3.734,-0 -6.784,1.283 -9.15,3.85c-2.367,2.567 -3.55,5.85 -3.55,9.85Z" style="fill:#28789c;fill-rule:nonzero;"/><path d="M804.017,789.855c-3.934,-0 -7.5,-0.833 -10.7,-2.5c-3.2,-1.667 -5.734,-4.117 -7.6,-7.35c-1.867,-3.233 -2.8,-7.25 -2.8,-12.05c-0,-4.667 0.983,-8.683 2.95,-12.05c1.966,-3.367 4.55,-5.967 7.75,-7.8c3.2,-1.833 6.733,-2.75 10.6,-2.75c3.866,-0 7.066,0.783 9.6,2.35c2.533,1.567 4.533,3.45 6,5.65l0.7,-6.3l9.3,-0l-0,41.8l-10.1,-0l-0,-6.6c-0.734,0.933 -1.834,2 -3.3,3.2c-1.467,1.2 -3.234,2.233 -5.3,3.1c-2.067,0.867 -4.434,1.3 -7.1,1.3Zm2.7,-8.3c3.266,-0 6.066,-0.883 8.4,-2.65c2.333,-1.767 3.866,-4.183 4.6,-7.25l-0,-8.6c-0.8,-2.733 -2.417,-5 -4.85,-6.8c-2.434,-1.8 -5.25,-2.7 -8.45,-2.7c-2.4,-0 -4.6,0.583 -6.6,1.75c-2,1.167 -3.6,2.8 -4.8,4.9c-1.2,2.1 -1.8,4.517 -1.8,7.25c-0,2.667 0.616,5.067 1.85,7.2c1.233,2.133 2.883,3.817 4.95,5.05c2.066,1.233 4.3,1.85 6.7,1.85Z" style="fill:#28789c;fill-rule:nonzero;"/><path d="M854.617,747.055l0.8,9.9c1.2,-2.4 2.8,-4.467 4.8,-6.2c2,-1.733 4.083,-3.067 6.25,-4c2.166,-0.933 4.016,-1.4 5.55,-1.4l-0.5,10c-3.134,-0.2 -5.884,0.4 -8.25,1.8c-2.367,1.4 -4.217,3.267 -5.55,5.6c-1.334,2.333 -2,4.833 -2,7.5l-0,18.6l-10.1,-0l-0,-41.8l9,-0Z" style="fill:#28789c;fill-rule:nonzero;"/><path d="M892.817,747.055l0.7,8c1.333,-2.933 3.466,-5.267 6.4,-7c2.933,-1.733 6.366,-2.6 10.3,-2.6c3.866,-0 7.066,1.167 9.6,3.5c2.533,2.333 3.866,5.333 4,9l-0,30.9l-10.1,-0l-0,-27.4c-0.067,-2.133 -0.7,-3.883 -1.9,-5.25c-1.2,-1.367 -3.067,-2.083 -5.6,-2.15c-3.534,-0 -6.484,1.467 -8.85,4.4c-2.367,2.933 -3.55,6.7 -3.55,11.3l-0,19.1l-10.1,-0l-0,-41.8l9.1,-0Z" style="fill:#28789c;fill-rule:nonzero;"/><path d="M959.317,789.855c-4.8,-0 -8.934,-0.95 -12.4,-2.85c-3.467,-1.9 -6.134,-4.533 -8,-7.9c-1.867,-3.367 -2.8,-7.183 -2.8,-11.45c-0,-4.133 1.05,-7.883 3.15,-11.25c2.1,-3.367 4.916,-6.05 8.45,-8.05c3.533,-2 7.466,-3 11.8,-3c5.6,-0 10.25,1.617 13.95,4.85c3.7,3.233 6.183,7.783 7.45,13.65l-32.7,11.3c1.2,1.933 2.783,3.433 4.75,4.5c1.966,1.067 4.15,1.6 6.55,1.6c1.8,-0 3.533,-0.3 5.2,-0.9c1.666,-0.6 3.233,-1.467 4.7,-2.6l4.6,7.5c-2.134,1.4 -4.5,2.517 -7.1,3.35c-2.6,0.833 -5.134,1.25 -7.6,1.25Zm-13.2,-22.8c-0,0.733 0.033,1.433 0.1,2.1l23.3,-8.5c-0.867,-1.933 -2.15,-3.633 -3.85,-5.1c-1.7,-1.467 -3.984,-2.2 -6.85,-2.2c-3.734,-0 -6.784,1.283 -9.15,3.85c-2.367,2.567 -3.55,5.85 -3.55,9.85Z" style="fill:#28789c;fill-rule:nonzero;"/><path d="M1009.32,789.855c-3.934,-0 -7.467,-0.917 -10.6,-2.75c-3.134,-1.833 -5.6,-4.433 -7.4,-7.8c-1.8,-3.367 -2.7,-7.35 -2.7,-11.95c-0,-4.6 0.966,-8.55 2.9,-11.85c1.933,-3.3 4.55,-5.817 7.85,-7.55c3.3,-1.733 7.016,-2.6 11.15,-2.6c3.066,-0 6,0.6 8.8,1.8c2.8,1.2 5.066,2.9 6.8,5.1l-0,-41.1l10.1,-0l-0,77.7l-10.2,-0l-0,-6.1c-2,2.067 -4.417,3.767 -7.25,5.1c-2.834,1.333 -5.984,2 -9.45,2Zm3.1,-8.5c3.533,-0 6.483,-0.917 8.85,-2.75c2.366,-1.833 3.95,-4.283 4.75,-7.35l-0,-8.3c-0.734,-2.8 -2.35,-5.1 -4.85,-6.9c-2.5,-1.8 -5.417,-2.7 -8.75,-2.7c-2.4,-0 -4.634,0.583 -6.7,1.75c-2.067,1.167 -3.717,2.8 -4.95,4.9c-1.234,2.1 -1.85,4.517 -1.85,7.25c-0,2.667 0.616,5.05 1.85,7.15c1.233,2.1 2.883,3.783 4.95,5.05c2.066,1.267 4.3,1.9 6.7,1.9Z" style="fill:#28789c;fill-rule:nonzero;"/><path d="M1092.32,747.055l10.8,24.9l9.9,-24.9l9.9,-0l-19.1,44.3l-13.4,-28.5l-12.3,28.5l-19.2,-44.3l9.8,-0l10.6,24.1l7.5,-17.3l-3.2,-6.8l8.7,-0Z" style="fill:#28789c;fill-rule:nonzero;"/><path d="M1132.62,788.855l-0,-77.7l9.9,-0l-0,43.3c1.466,-2.6 3.616,-4.75 6.45,-6.45c2.833,-1.7 6.216,-2.55 10.15,-2.55c3.866,-0 7.066,1.167 9.6,3.5c2.533,2.333 3.866,5.333 4,9l-0,30.9l-10.1,-0l-0,-27.4c-0.067,-2.133 -0.7,-3.883 -1.9,-5.25c-1.2,-1.367 -3.067,-2.083 -5.6,-2.15c-3.534,-0 -6.484,1.483 -8.85,4.45c-2.367,2.967 -3.55,6.717 -3.55,11.25l-0,19.1l-10.1,-0Z" style="fill:#28789c;fill-rule:nonzero;"/><path d="M1208.22,789.855c-4.8,-0 -8.934,-0.95 -12.4,-2.85c-3.467,-1.9 -6.134,-4.533 -8,-7.9c-1.867,-3.367 -2.8,-7.183 -2.8,-11.45c-0,-4.133 1.05,-7.883 3.15,-11.25c2.1,-3.367 4.916,-6.05 8.45,-8.05c3.533,-2 7.466,-3 11.8,-3c5.6,-0 10.25,1.617 13.95,4.85c3.7,3.233 6.183,7.783 7.45,13.65l-32.7,11.3c1.2,1.933 2.783,3.433 4.75,4.5c1.966,1.067 4.15,1.6 6.55,1.6c1.8,-0 3.533,-0.3 5.2,-0.9c1.666,-0.6 3.233,-1.467 4.7,-2.6l4.6,7.5c-2.134,1.4 -4.5,2.517 -7.1,3.35c-2.6,0.833 -5.134,1.25 -7.6,1.25Zm-13.2,-22.8c-0,0.733 0.033,1.433 0.1,2.1l23.3,-8.5c-0.867,-1.933 -2.15,-3.633 -3.85,-5.1c-1.7,-1.467 -3.984,-2.2 -6.85,-2.2c-3.734,-0 -6.784,1.283 -9.15,3.85c-2.367,2.567 -3.55,5.85 -3.55,9.85Z" style="fill:#28789c;fill-rule:nonzero;"/><path d="M1250.22,747.055l0.7,8c1.333,-2.933 3.466,-5.267 6.4,-7c2.933,-1.733 6.366,-2.6 10.3,-2.6c3.866,-0 7.066,1.167 9.6,3.5c2.533,2.333 3.866,5.333 4,9l-0,30.9l-10.1,-0l-0,-27.4c-0.067,-2.133 -0.7,-3.883 -1.9,-5.25c-1.2,-1.367 -3.067,-2.083 -5.6,-2.15c-3.534,-0 -6.484,1.467 -8.85,4.4c-2.367,2.933 -3.55,6.7 -3.55,11.3l-0,19.1l-10.1,-0l-0,-41.8l9.1,-0Z" style="fill:#28789c;fill-rule:nonzero;"/><path d="M1327.62,789.855c-3.934,-0 -7.5,-0.833 -10.7,-2.5c-3.2,-1.667 -5.734,-4.117 -7.6,-7.35c-1.867,-3.233 -2.8,-7.25 -2.8,-12.05c-0,-4.667 0.983,-8.683 2.95,-12.05c1.966,-3.367 4.55,-5.967 7.75,-7.8c3.2,-1.833 6.733,-2.75 10.6,-2.75c3.866,-0 7.066,0.783 9.6,2.35c2.533,1.567 4.533,3.45 6,5.65l0.7,-6.3l9.3,-0l-0,41.8l-10.1,-0l-0,-6.6c-0.734,0.933 -1.834,2 -3.3,3.2c-1.467,1.2 -3.234,2.233 -5.3,3.1c-2.067,0.867 -4.434,1.3 -7.1,1.3Zm2.7,-8.3c3.266,-0 6.066,-0.883 8.4,-2.65c2.333,-1.767 3.866,-4.183 4.6,-7.25l-0,-8.6c-0.8,-2.733 -2.417,-5 -4.85,-6.8c-2.434,-1.8 -5.25,-2.7 -8.45,-2.7c-2.4,-0 -4.6,0.583 -6.6,1.75c-2,1.167 -3.6,2.8 -4.8,4.9c-1.2,2.1 -1.8,4.517 -1.8,7.25c-0,2.667 0.616,5.067 1.85,7.2c1.233,2.133 2.883,3.817 4.95,5.05c2.066,1.233 4.3,1.85 6.7,1.85Z" style="fill:#28789c;fill-rule:nonzero;"/><path d="M1403.42,784.955c-1.934,1.533 -4.2,2.733 -6.8,3.6c-2.6,0.867 -5.234,1.3 -7.9,1.3c-4.534,-0 -8.55,-0.9 -12.05,-2.7c-3.5,-1.8 -6.217,-4.333 -8.15,-7.6c-1.934,-3.267 -2.9,-7.133 -2.9,-11.6c-0,-4.467 1.033,-8.35 3.1,-11.65c2.066,-3.3 4.783,-5.833 8.15,-7.6c3.366,-1.767 6.983,-2.65 10.85,-2.65c3.466,-0 6.516,0.467 9.15,1.4c2.633,0.933 4.916,2.233 6.85,3.9l-5,6.5c-1.134,-0.933 -2.567,-1.767 -4.3,-2.5c-1.734,-0.733 -3.7,-1.1 -5.9,-1.1c-2.4,-0 -4.567,0.6 -6.5,1.8c-1.934,1.2 -3.467,2.833 -4.6,4.9c-1.134,2.067 -1.7,4.4 -1.7,7c-0,2.533 0.583,4.833 1.75,6.9c1.166,2.067 2.8,3.7 4.9,4.9c2.1,1.2 4.483,1.8 7.15,1.8c1.733,-0 3.35,-0.25 4.85,-0.75c1.5,-0.5 2.816,-1.217 3.95,-2.15l5.1,6.3Z" style="fill:#28789c;fill-rule:nonzero;"/><path d="M1419.22,728.755l10.2,-0l-0,18.4l11.2,-0l-0,7.9l-11.2,-0l-0,33.8l-10.2,-0l-0,-33.8l-7.4,-0l-0,-7.9l7.4,-0l-0,-18.4Z" style="fill:#28789c;fill-rule:nonzero;"/><path d="M1451.72,747.055l10.1,-0l-0,41.8l-10.1,-0l-0,-41.8Zm-0.5,-15c-0,-1.533 0.616,-2.833 1.85,-3.9c1.233,-1.067 2.583,-1.6 4.05,-1.6c1.466,-0 2.8,0.533 4,1.6c1.2,1.067 1.8,2.367 1.8,3.9c-0,1.667 -0.6,3 -1.8,4c-1.2,1 -2.534,1.5 -4,1.5c-1.467,-0 -2.817,-0.5 -4.05,-1.5c-1.234,-1 -1.85,-2.333 -1.85,-4Z" style="fill:#28789c;fill-rule:nonzero;"/><path d="M1474.02,767.555c-0,-4.2 1,-7.967 3,-11.3c2,-3.333 4.75,-5.983 8.25,-7.95c3.5,-1.967 7.55,-2.95 12.15,-2.95c4.6,-0 8.616,0.983 12.05,2.95c3.433,1.967 6.1,4.617 8,7.95c1.9,3.333 2.85,7.1 2.85,11.3c-0,4.2 -0.967,7.983 -2.9,11.35c-1.934,3.367 -4.634,6.033 -8.1,8c-3.467,1.967 -7.5,2.95 -12.1,2.95c-4.467,-0 -8.434,-0.9 -11.9,-2.7c-3.467,-1.8 -6.217,-4.367 -8.25,-7.7c-2.034,-3.333 -3.05,-7.3 -3.05,-11.9Zm10.2,0.1c-0,2.667 0.566,5.033 1.7,7.1c1.133,2.067 2.683,3.717 4.65,4.95c1.966,1.233 4.15,1.85 6.55,1.85c3.8,-0 6.916,-1.333 9.35,-4c2.433,-2.667 3.65,-5.967 3.65,-9.9c-0,-3.933 -1.217,-7.25 -3.65,-9.95c-2.434,-2.7 -5.55,-4.05 -9.35,-4.05c-2.467,-0 -4.667,0.633 -6.6,1.9c-1.934,1.267 -3.467,2.967 -4.6,5.1c-1.134,2.133 -1.7,4.467 -1.7,7Z" style="fill:#28789c;fill-rule:nonzero;"/><path d="M1541.62,747.055l0.7,8c1.333,-2.933 3.466,-5.267 6.4,-7c2.933,-1.733 6.366,-2.6 10.3,-2.6c3.866,-0 7.066,1.167 9.6,3.5c2.533,2.333 3.866,5.333 4,9l-0,30.9l-10.1,-0l-0,-27.4c-0.067,-2.133 -0.7,-3.883 -1.9,-5.25c-1.2,-1.367 -3.067,-2.083 -5.6,-2.15c-3.534,-0 -6.484,1.467 -8.85,4.4c-2.367,2.933 -3.55,6.7 -3.55,11.3l-0,19.1l-10.1,-0l-0,-41.8l9.1,-0Z" style="fill:#28789c;fill-rule:nonzero;"/><path d="M1600.62,789.755c-3.067,-0 -6,-0.55 -8.8,-1.65c-2.8,-1.1 -5.167,-2.683 -7.1,-4.75l4.3,-5.8c1.733,1.667 3.533,2.933 5.4,3.8c1.866,0.867 3.666,1.3 5.4,1.3c1.933,-0 3.633,-0.383 5.1,-1.15c1.466,-0.767 2.2,-2.05 2.2,-3.85c-0,-1.467 -0.484,-2.6 -1.45,-3.4c-0.967,-0.8 -2.184,-1.467 -3.65,-2c-1.467,-0.533 -3.034,-1.033 -4.7,-1.5c-7.134,-2.333 -10.7,-6.433 -10.7,-12.3c-0,-2.133 0.55,-4.2 1.65,-6.2c1.1,-2 2.766,-3.617 5,-4.85c2.233,-1.233 5.05,-1.85 8.45,-1.85c2.933,-0 5.566,0.35 7.9,1.05c2.333,0.7 4.5,1.883 6.5,3.55l-3.9,6.1c-1.2,-1.2 -2.617,-2.117 -4.25,-2.75c-1.634,-0.633 -3.117,-0.983 -4.45,-1.05c-1.8,-0 -3.367,0.417 -4.7,1.25c-1.334,0.833 -2,1.95 -2,3.35c-0,1.467 0.466,2.6 1.4,3.4c0.933,0.8 2.15,1.45 3.65,1.95c1.5,0.5 3.016,1.017 4.55,1.55c3.066,1 5.616,2.367 7.65,4.1c2.033,1.733 3.05,4.267 3.05,7.6c-0,2.533 -0.6,4.867 -1.8,7c-1.2,2.133 -3.017,3.85 -5.45,5.15c-2.434,1.3 -5.517,1.95 -9.25,1.95Z" style="fill:#28789c;fill-rule:nonzero;"/><path d="M1652.02,747.055l0.7,7.7c1.6,-2.933 3.783,-5.233 6.55,-6.9c2.766,-1.667 5.916,-2.5 9.45,-2.5c3.466,-0 6.366,0.8 8.7,2.4c2.333,1.6 3.733,3.767 4.2,6.5c1.733,-2.8 3.933,-4.983 6.6,-6.55c2.666,-1.567 5.5,-2.35 8.5,-2.35c4.066,-0 7.3,1.15 9.7,3.45c2.4,2.3 3.666,5.317 3.8,9.05l-0,31l-10,-0l-0,-27.2c-0.134,-2.133 -0.634,-3.9 -1.5,-5.3c-0.867,-1.4 -2.467,-2.167 -4.8,-2.3c-2.467,-0 -4.6,0.733 -6.4,2.2c-1.8,1.467 -3.217,3.367 -4.25,5.7c-1.034,2.333 -1.584,4.833 -1.65,7.5l-0,19.4l-10.1,-0l-0,-27.2c-0.067,-2.133 -0.584,-3.9 -1.55,-5.3c-0.967,-1.4 -2.617,-2.167 -4.95,-2.3c-2.4,-0 -4.5,0.733 -6.3,2.2c-1.8,1.467 -3.2,3.383 -4.2,5.75c-1,2.367 -1.5,4.883 -1.5,7.55l-0,19.3l-10.1,-0l-0,-41.8l9.1,-0Z" style="fill:#28789c;fill-rule:nonzero;"/><path d="M1745.62,789.855c-4.8,-0 -8.934,-0.95 -12.4,-2.85c-3.467,-1.9 -6.134,-4.533 -8,-7.9c-1.867,-3.367 -2.8,-7.183 -2.8,-11.45c-0,-4.133 1.05,-7.883 3.15,-11.25c2.1,-3.367 4.916,-6.05 8.45,-8.05c3.533,-2 7.466,-3 11.8,-3c5.6,-0 10.25,1.617 13.95,4.85c3.7,3.233 6.183,7.783 7.45,13.65l-32.7,11.3c1.2,1.933 2.783,3.433 4.75,4.5c1.966,1.067 4.15,1.6 6.55,1.6c1.8,-0 3.533,-0.3 5.2,-0.9c1.666,-0.6 3.233,-1.467 4.7,-2.6l4.6,7.5c-2.134,1.4 -4.5,2.517 -7.1,3.35c-2.6,0.833 -5.134,1.25 -7.6,1.25Zm-13.2,-22.8c-0,0.733 0.033,1.433 0.1,2.1l23.3,-8.5c-0.867,-1.933 -2.15,-3.633 -3.85,-5.1c-1.7,-1.467 -3.984,-2.2 -6.85,-2.2c-3.734,-0 -6.784,1.283 -9.15,3.85c-2.367,2.567 -3.55,5.85 -3.55,9.85Z" style="fill:#28789c;fill-rule:nonzero;"/><path d="M1798.12,789.855c-4.8,-0 -8.934,-0.95 -12.4,-2.85c-3.467,-1.9 -6.134,-4.533 -8,-7.9c-1.867,-3.367 -2.8,-7.183 -2.8,-11.45c-0,-4.133 1.05,-7.883 3.15,-11.25c2.1,-3.367 4.916,-6.05 8.45,-8.05c3.533,-2 7.466,-3 11.8,-3c5.6,-0 10.25,1.617 13.95,4.85c3.7,3.233 6.183,7.783 7.45,13.65l-32.7,11.3c1.2,1.933 2.783,3.433 4.75,4.5c1.966,1.067 4.15,1.6 6.55,1.6c1.8,-0 3.533,-0.3 5.2,-0.9c1.666,-0.6 3.233,-1.467 4.7,-2.6l4.6,7.5c-2.134,1.4 -4.5,2.517 -7.1,3.35c-2.6,0.833 -5.134,1.25 -7.6,1.25Zm-13.2,-22.8c-0,0.733 0.033,1.433 0.1,2.1l23.3,-8.5c-0.867,-1.933 -2.15,-3.633 -3.85,-5.1c-1.7,-1.467 -3.984,-2.2 -6.85,-2.2c-3.734,-0 -6.784,1.283 -9.15,3.85c-2.367,2.567 -3.55,5.85 -3.55,9.85Z" style="fill:#28789c;fill-rule:nonzero;"/><path d="M1835.02,728.755l10.2,-0l-0,18.4l11.2,-0l-0,7.9l-11.2,-0l-0,33.8l-10.2,-0l-0,-33.8l-7.4,-0l-0,-7.9l7.4,-0l-0,-18.4Z" style="fill:#28789c;fill-rule:nonzero;"/><path d="M1879.62,789.755c-3.067,-0 -6,-0.55 -8.8,-1.65c-2.8,-1.1 -5.167,-2.683 -7.1,-4.75l4.3,-5.8c1.733,1.667 3.533,2.933 5.4,3.8c1.866,0.867 3.666,1.3 5.4,1.3c1.933,-0 3.633,-0.383 5.1,-1.15c1.466,-0.767 2.2,-2.05 2.2,-3.85c-0,-1.467 -0.484,-2.6 -1.45,-3.4c-0.967,-0.8 -2.184,-1.467 -3.65,-2c-1.467,-0.533 -3.034,-1.033 -4.7,-1.5c-7.134,-2.333 -10.7,-6.433 -10.7,-12.3c-0,-2.133 0.55,-4.2 1.65,-6.2c1.1,-2 2.766,-3.617 5,-4.85c2.233,-1.233 5.05,-1.85 8.45,-1.85c2.933,-0 5.566,0.35 7.9,1.05c2.333,0.7 4.5,1.883 6.5,3.55l-3.9,6.1c-1.2,-1.2 -2.617,-2.117 -4.25,-2.75c-1.634,-0.633 -3.117,-0.983 -4.45,-1.05c-1.8,-0 -3.367,0.417 -4.7,1.25c-1.334,0.833 -2,1.95 -2,3.35c-0,1.467 0.466,2.6 1.4,3.4c0.933,0.8 2.15,1.45 3.65,1.95c1.5,0.5 3.016,1.017 4.55,1.55c3.066,1 5.616,2.367 7.65,4.1c2.033,1.733 3.05,4.267 3.05,7.6c-0,2.533 -0.6,4.867 -1.8,7c-1.2,2.133 -3.017,3.85 -5.45,5.15c-2.434,1.3 -5.517,1.95 -9.25,1.95Z" style="fill:#28789c;fill-rule:nonzero;"/><path d="M1949.22,747.055l10.8,24.9l9.9,-24.9l9.9,-0l-19.1,44.3l-13.4,-28.5l-12.3,28.5l-19.2,-44.3l9.8,-0l10.6,24.1l7.5,-17.3l-3.2,-6.8l8.7,-0Z" style="fill:#28789c;fill-rule:nonzero;"/><path d="M1984.82,767.555c-0,-4.2 1,-7.967 3,-11.3c2,-3.333 4.75,-5.983 8.25,-7.95c3.5,-1.967 7.55,-2.95 12.15,-2.95c4.6,-0 8.616,0.983 12.05,2.95c3.433,1.967 6.1,4.617 8,7.95c1.9,3.333 2.85,7.1 2.85,11.3c-0,4.2 -0.967,7.983 -2.9,11.35c-1.934,3.367 -4.634,6.033 -8.1,8c-3.467,1.967 -7.5,2.95 -12.1,2.95c-4.467,-0 -8.434,-0.9 -11.9,-2.7c-3.467,-1.8 -6.217,-4.367 -8.25,-7.7c-2.034,-3.333 -3.05,-7.3 -3.05,-11.9Zm10.2,0.1c-0,2.667 0.566,5.033 1.7,7.1c1.133,2.067 2.683,3.717 4.65,4.95c1.966,1.233 4.15,1.85 6.55,1.85c3.8,-0 6.916,-1.333 9.35,-4c2.433,-2.667 3.65,-5.967 3.65,-9.9c-0,-3.933 -1.217,-7.25 -3.65,-9.95c-2.434,-2.7 -5.55,-4.05 -9.35,-4.05c-2.467,-0 -4.667,0.633 -6.6,1.9c-1.934,1.267 -3.467,2.967 -4.6,5.1c-1.134,2.133 -1.7,4.467 -1.7,7Z" style="fill:#28789c;fill-rule:nonzero;"/><path d="M2052.32,747.055l0.8,9.9c1.2,-2.4 2.8,-4.467 4.8,-6.2c2,-1.733 4.083,-3.067 6.25,-4c2.166,-0.933 4.016,-1.4 5.55,-1.4l-0.5,10c-3.134,-0.2 -5.884,0.4 -8.25,1.8c-2.367,1.4 -4.217,3.267 -5.55,5.6c-1.334,2.333 -2,4.833 -2,7.5l-0,18.6l-10.1,-0l-0,-41.8l9,-0Z" style="fill:#28789c;fill-rule:nonzero;"/><path d="M2096.72,789.855c-3.934,-0 -7.467,-0.917 -10.6,-2.75c-3.134,-1.833 -5.6,-4.433 -7.4,-7.8c-1.8,-3.367 -2.7,-7.35 -2.7,-11.95c-0,-4.6 0.966,-8.55 2.9,-11.85c1.933,-3.3 4.55,-5.817 7.85,-7.55c3.3,-1.733 7.016,-2.6 11.15,-2.6c3.066,-0 6,0.6 8.8,1.8c2.8,1.2 5.066,2.9 6.8,5.1l-0,-41.1l10.1,-0l-0,77.7l-10.2,-0l-0,-6.1c-2,2.067 -4.417,3.767 -7.25,5.1c-2.834,1.333 -5.984,2 -9.45,2Zm3.1,-8.5c3.533,-0 6.483,-0.917 8.85,-2.75c2.366,-1.833 3.95,-4.283 4.75,-7.35l-0,-8.3c-0.734,-2.8 -2.35,-5.1 -4.85,-6.9c-2.5,-1.8 -5.417,-2.7 -8.75,-2.7c-2.4,-0 -4.634,0.583 -6.7,1.75c-2.067,1.167 -3.717,2.8 -4.95,4.9c-1.234,2.1 -1.85,4.517 -1.85,7.25c-0,2.667 0.616,5.05 1.85,7.15c1.233,2.1 2.883,3.783 4.95,5.05c2.066,1.267 4.3,1.9 6.7,1.9Z" style="fill:#28789c;fill-rule:nonzero;"/><path d="M2151.52,789.755c-3.067,-0 -6,-0.55 -8.8,-1.65c-2.8,-1.1 -5.167,-2.683 -7.1,-4.75l4.3,-5.8c1.733,1.667 3.533,2.933 5.4,3.8c1.866,0.867 3.666,1.3 5.4,1.3c1.933,-0 3.633,-0.383 5.1,-1.15c1.466,-0.767 2.2,-2.05 2.2,-3.85c-0,-1.467 -0.484,-2.6 -1.45,-3.4c-0.967,-0.8 -2.184,-1.467 -3.65,-2c-1.467,-0.533 -3.034,-1.033 -4.7,-1.5c-7.134,-2.333 -10.7,-6.433 -10.7,-12.3c-0,-2.133 0.55,-4.2 1.65,-6.2c1.1,-2 2.766,-3.617 5,-4.85c2.233,-1.233 5.05,-1.85 8.45,-1.85c2.933,-0 5.566,0.35 7.9,1.05c2.333,0.7 4.5,1.883 6.5,3.55l-3.9,6.1c-1.2,-1.2 -2.617,-2.117 -4.25,-2.75c-1.634,-0.633 -3.117,-0.983 -4.45,-1.05c-1.8,-0 -3.367,0.417 -4.7,1.25c-1.334,0.833 -2,1.95 -2,3.35c-0,1.467 0.466,2.6 1.4,3.4c0.933,0.8 2.15,1.45 3.65,1.95c1.5,0.5 3.016,1.017 4.55,1.55c3.066,1 5.616,2.367 7.65,4.1c2.033,1.733 3.05,4.267 3.05,7.6c-0,2.533 -0.6,4.867 -1.8,7c-1.2,2.133 -3.017,3.85 -5.45,5.15c-2.434,1.3 -5.517,1.95 -9.25,1.95Z" style="fill:#28789c;fill-rule:nonzero;"/><path d="M2188.32,715.855c-0.067,4.2 -0.134,8.383 -0.2,12.55c-0.067,4.167 -0.134,8.383 -0.2,12.65l-8.6,-0l-0,-25.2l9,-0Zm13.5,-0c-0.067,4.2 -0.134,8.383 -0.2,12.55c-0.067,4.167 -0.134,8.383 -0.2,12.65l-8.6,-0l-0,-25.2l9,-0Z" style="fill:#28789c;fill-rule:nonzero;"/></svg>